<mxfile host="Electron" agent="Mozilla/5.0 (Macintosh; Intel Mac OS X 10_15_7) AppleWebKit/537.36 (KHTML, like Gecko) draw.io/26.0.16 Chrome/132.0.6834.196 Electron/34.2.0 Safari/537.36" version="26.0.16">
  <diagram name="Страница — 1" id="5H-hBNvwUbpA375HUfUg">
    <mxGraphModel dx="2051" dy="1026" grid="1" gridSize="10" guides="1" tooltips="1" connect="1" arrows="1" fold="1" page="1" pageScale="1" pageWidth="827" pageHeight="1169" math="0" shadow="0">
      <root>
        <mxCell id="0" />
        <mxCell id="1" parent="0" />
        <mxCell id="QS6wYorZDuto70AmAxFD-2" value="&lt;font style=&quot;font-size: 24px;&quot;&gt;&amp;nbsp;Диаграммы потоков данных с изменениями&lt;/font&gt;" style="text;html=1;align=center;verticalAlign=middle;whiteSpace=wrap;rounded=0;" parent="1" vertex="1">
          <mxGeometry x="10" y="30" width="590" height="30" as="geometry" />
        </mxCell>
        <mxCell id="QS6wYorZDuto70AmAxFD-5" value="Локальное хранилище данных" style="shape=cylinder3;whiteSpace=wrap;html=1;boundedLbl=1;backgroundOutline=1;size=15;" parent="1" vertex="1">
          <mxGeometry x="1180" y="585" width="100" height="80" as="geometry" />
        </mxCell>
        <mxCell id="QS6wYorZDuto70AmAxFD-22" value="Сотрудник склада" style="rounded=0;whiteSpace=wrap;html=1;" parent="1" vertex="1">
          <mxGeometry x="20" y="425" width="120" height="60" as="geometry" />
        </mxCell>
        <mxCell id="QS6wYorZDuto70AmAxFD-92" style="edgeStyle=orthogonalEdgeStyle;rounded=0;orthogonalLoop=1;jettySize=auto;html=1;exitX=1;exitY=0.5;exitDx=0;exitDy=0;entryX=0;entryY=0.5;entryDx=0;entryDy=0;" parent="1" source="q35OqRyjjlaC8kFbtdeE-2" target="QS6wYorZDuto70AmAxFD-91" edge="1">
          <mxGeometry relative="1" as="geometry">
            <mxPoint x="623.6700000000001" y="625" as="sourcePoint" />
          </mxGeometry>
        </mxCell>
        <mxCell id="QS6wYorZDuto70AmAxFD-94" value="Результаты анализов" style="edgeLabel;html=1;align=center;verticalAlign=middle;resizable=0;points=[];" parent="QS6wYorZDuto70AmAxFD-92" vertex="1" connectable="0">
          <mxGeometry x="0.2975" y="5" relative="1" as="geometry">
            <mxPoint x="-26" y="-10" as="offset" />
          </mxGeometry>
        </mxCell>
        <mxCell id="QS6wYorZDuto70AmAxFD-24" value="1C Торговля и склад" style="shape=cylinder3;whiteSpace=wrap;html=1;boundedLbl=1;backgroundOutline=1;size=15;" parent="1" vertex="1">
          <mxGeometry x="770" y="415" width="100" height="80" as="geometry" />
        </mxCell>
        <mxCell id="QS6wYorZDuto70AmAxFD-25" style="edgeStyle=orthogonalEdgeStyle;rounded=0;orthogonalLoop=1;jettySize=auto;html=1;exitX=1;exitY=0.5;exitDx=0;exitDy=0;entryX=0;entryY=0.5;entryDx=0;entryDy=0;" parent="1" source="QS6wYorZDuto70AmAxFD-22" target="QS6wYorZDuto70AmAxFD-86" edge="1">
          <mxGeometry relative="1" as="geometry" />
        </mxCell>
        <mxCell id="QS6wYorZDuto70AmAxFD-89" value="Список изменений" style="edgeLabel;html=1;align=center;verticalAlign=middle;resizable=0;points=[];" parent="QS6wYorZDuto70AmAxFD-25" vertex="1" connectable="0">
          <mxGeometry x="0.2129" y="-1" relative="1" as="geometry">
            <mxPoint x="-21" y="-13" as="offset" />
          </mxGeometry>
        </mxCell>
        <mxCell id="QS6wYorZDuto70AmAxFD-27" value="Медицинские специалисты" style="rounded=0;whiteSpace=wrap;html=1;" parent="1" vertex="1">
          <mxGeometry x="1483.67" y="595" width="120" height="60" as="geometry" />
        </mxCell>
        <mxCell id="QS6wYorZDuto70AmAxFD-28" style="edgeStyle=orthogonalEdgeStyle;rounded=0;orthogonalLoop=1;jettySize=auto;html=1;exitX=0;exitY=0.5;exitDx=0;exitDy=0;entryX=1;entryY=0.5;entryDx=0;entryDy=0;entryPerimeter=0;" parent="1" source="QS6wYorZDuto70AmAxFD-27" target="QS6wYorZDuto70AmAxFD-5" edge="1">
          <mxGeometry relative="1" as="geometry" />
        </mxCell>
        <mxCell id="QS6wYorZDuto70AmAxFD-82" value="Запрос к хранилищу" style="edgeLabel;html=1;align=center;verticalAlign=middle;resizable=0;points=[];" parent="QS6wYorZDuto70AmAxFD-28" vertex="1" connectable="0">
          <mxGeometry x="-0.1103" y="-5" relative="1" as="geometry">
            <mxPoint x="-15" y="-10" as="offset" />
          </mxGeometry>
        </mxCell>
        <mxCell id="QS6wYorZDuto70AmAxFD-33" value="Обработка данных о пациенте" style="text;html=1;align=center;verticalAlign=middle;whiteSpace=wrap;rounded=0;" parent="1" vertex="1">
          <mxGeometry x="20" y="100" width="200" height="30" as="geometry" />
        </mxCell>
        <mxCell id="QS6wYorZDuto70AmAxFD-34" style="edgeStyle=orthogonalEdgeStyle;rounded=0;orthogonalLoop=1;jettySize=auto;html=1;exitX=1;exitY=0.5;exitDx=0;exitDy=0;entryX=0;entryY=0.5;entryDx=0;entryDy=0;" parent="1" source="QS6wYorZDuto70AmAxFD-38" target="QS6wYorZDuto70AmAxFD-39" edge="1">
          <mxGeometry relative="1" as="geometry" />
        </mxCell>
        <mxCell id="QS6wYorZDuto70AmAxFD-35" value="Запрос на регистрацию пациента" style="edgeLabel;html=1;align=center;verticalAlign=middle;resizable=0;points=[];" parent="QS6wYorZDuto70AmAxFD-34" vertex="1" connectable="0">
          <mxGeometry x="-0.1733" y="2" relative="1" as="geometry">
            <mxPoint x="6" y="-13" as="offset" />
          </mxGeometry>
        </mxCell>
        <mxCell id="QS6wYorZDuto70AmAxFD-38" value="Пациент" style="rounded=0;whiteSpace=wrap;html=1;" parent="1" vertex="1">
          <mxGeometry x="20" y="160" width="120" height="60" as="geometry" />
        </mxCell>
        <mxCell id="QS6wYorZDuto70AmAxFD-39" value="Автоматизированная обработка данных пациента" style="rounded=1;whiteSpace=wrap;html=1;fillColor=light-dark(#FFFFFF,var(--ge-dark-color, #121212));" parent="1" vertex="1">
          <mxGeometry x="360" y="160" width="130" height="60" as="geometry" />
        </mxCell>
        <mxCell id="1K4KLH_W878eEwViPDDh-15" style="edgeStyle=orthogonalEdgeStyle;rounded=0;orthogonalLoop=1;jettySize=auto;html=1;exitX=1;exitY=0;exitDx=0;exitDy=60;exitPerimeter=0;entryX=0;entryY=0.5;entryDx=0;entryDy=0;" edge="1" parent="1" source="QS6wYorZDuto70AmAxFD-40" target="1K4KLH_W878eEwViPDDh-12">
          <mxGeometry relative="1" as="geometry" />
        </mxCell>
        <mxCell id="1K4KLH_W878eEwViPDDh-18" value="Зашифрованные данные" style="edgeLabel;html=1;align=center;verticalAlign=middle;resizable=0;points=[];" vertex="1" connectable="0" parent="1K4KLH_W878eEwViPDDh-15">
          <mxGeometry x="0.4733" y="1" relative="1" as="geometry">
            <mxPoint x="-40" y="21" as="offset" />
          </mxGeometry>
        </mxCell>
        <mxCell id="QS6wYorZDuto70AmAxFD-40" value="Локальное хранилище данных" style="shape=cylinder3;whiteSpace=wrap;html=1;boundedLbl=1;backgroundOutline=1;size=15;" parent="1" vertex="1">
          <mxGeometry x="1210" y="150" width="100" height="90" as="geometry" />
        </mxCell>
        <mxCell id="QS6wYorZDuto70AmAxFD-41" style="edgeStyle=orthogonalEdgeStyle;rounded=0;orthogonalLoop=1;jettySize=auto;html=1;exitX=1;exitY=0.5;exitDx=0;exitDy=0;entryX=0;entryY=0.5;entryDx=0;entryDy=0;" parent="1" source="QS6wYorZDuto70AmAxFD-39" target="1K4KLH_W878eEwViPDDh-1" edge="1">
          <mxGeometry relative="1" as="geometry" />
        </mxCell>
        <mxCell id="1K4KLH_W878eEwViPDDh-2" value="Данные пациенте" style="edgeLabel;html=1;align=center;verticalAlign=middle;resizable=0;points=[];" vertex="1" connectable="0" parent="QS6wYorZDuto70AmAxFD-41">
          <mxGeometry x="-0.0875" y="4" relative="1" as="geometry">
            <mxPoint y="-6" as="offset" />
          </mxGeometry>
        </mxCell>
        <mxCell id="QS6wYorZDuto70AmAxFD-55" value="Медицинские специалисты" style="rounded=0;whiteSpace=wrap;html=1;" parent="1" vertex="1">
          <mxGeometry x="1740" y="60" width="120" height="60" as="geometry" />
        </mxCell>
        <mxCell id="QS6wYorZDuto70AmAxFD-56" style="edgeStyle=orthogonalEdgeStyle;rounded=0;orthogonalLoop=1;jettySize=auto;html=1;exitX=0;exitY=0.5;exitDx=0;exitDy=0;entryX=1;entryY=0.5;entryDx=0;entryDy=0;entryPerimeter=0;" parent="1" source="1K4KLH_W878eEwViPDDh-9" target="QS6wYorZDuto70AmAxFD-40" edge="1">
          <mxGeometry relative="1" as="geometry" />
        </mxCell>
        <mxCell id="1K4KLH_W878eEwViPDDh-13" value="Запрос к хранилищу" style="edgeLabel;html=1;align=center;verticalAlign=middle;resizable=0;points=[];" vertex="1" connectable="0" parent="QS6wYorZDuto70AmAxFD-56">
          <mxGeometry x="-0.6733" y="-4" relative="1" as="geometry">
            <mxPoint x="-46" y="-16" as="offset" />
          </mxGeometry>
        </mxCell>
        <mxCell id="QS6wYorZDuto70AmAxFD-61" value="Проведение платежей" style="text;html=1;align=center;verticalAlign=middle;whiteSpace=wrap;rounded=0;" parent="1" vertex="1">
          <mxGeometry x="10" y="250" width="200" height="30" as="geometry" />
        </mxCell>
        <mxCell id="QS6wYorZDuto70AmAxFD-64" style="edgeStyle=orthogonalEdgeStyle;rounded=0;orthogonalLoop=1;jettySize=auto;html=1;exitX=1;exitY=0.5;exitDx=0;exitDy=0;entryX=0;entryY=0.5;entryDx=0;entryDy=0;" parent="1" source="QS6wYorZDuto70AmAxFD-66" target="QS6wYorZDuto70AmAxFD-71" edge="1">
          <mxGeometry relative="1" as="geometry" />
        </mxCell>
        <mxCell id="QS6wYorZDuto70AmAxFD-65" value="Данные платежа" style="edgeLabel;html=1;align=center;verticalAlign=middle;resizable=0;points=[];" parent="QS6wYorZDuto70AmAxFD-64" vertex="1" connectable="0">
          <mxGeometry x="-0.5286" relative="1" as="geometry">
            <mxPoint x="46" y="-20" as="offset" />
          </mxGeometry>
        </mxCell>
        <mxCell id="QS6wYorZDuto70AmAxFD-66" value="Пациент" style="rounded=0;whiteSpace=wrap;html=1;" parent="1" vertex="1">
          <mxGeometry x="20" y="300" width="120" height="60" as="geometry" />
        </mxCell>
        <mxCell id="QS6wYorZDuto70AmAxFD-69" value="1C Бухгалтерия предприятия" style="shape=cylinder3;whiteSpace=wrap;html=1;boundedLbl=1;backgroundOutline=1;size=15;" parent="1" vertex="1">
          <mxGeometry x="1670" y="290" width="100" height="80" as="geometry" />
        </mxCell>
        <mxCell id="QS6wYorZDuto70AmAxFD-70" style="edgeStyle=orthogonalEdgeStyle;rounded=0;orthogonalLoop=1;jettySize=auto;html=1;exitX=1;exitY=0.5;exitDx=0;exitDy=0;entryX=0;entryY=0.5;entryDx=0;entryDy=0;" parent="1" source="QS6wYorZDuto70AmAxFD-71" target="QS6wYorZDuto70AmAxFD-73" edge="1">
          <mxGeometry relative="1" as="geometry" />
        </mxCell>
        <mxCell id="QS6wYorZDuto70AmAxFD-83" value="Данные о платеже из кассы" style="edgeLabel;html=1;align=center;verticalAlign=middle;resizable=0;points=[];" parent="QS6wYorZDuto70AmAxFD-70" vertex="1" connectable="0">
          <mxGeometry x="0.2596" y="-1" relative="1" as="geometry">
            <mxPoint x="-24" y="-21" as="offset" />
          </mxGeometry>
        </mxCell>
        <mxCell id="QS6wYorZDuto70AmAxFD-71" value="Оплата за медицинские услуги" style="rounded=1;whiteSpace=wrap;html=1;" parent="1" vertex="1">
          <mxGeometry x="300" y="300" width="140" height="60" as="geometry" />
        </mxCell>
        <mxCell id="QS6wYorZDuto70AmAxFD-72" style="edgeStyle=orthogonalEdgeStyle;rounded=0;orthogonalLoop=1;jettySize=auto;html=1;exitX=1;exitY=0.5;exitDx=0;exitDy=0;entryX=0;entryY=0.5;entryDx=0;entryDy=0;" parent="1" source="1K4KLH_W878eEwViPDDh-23" target="QS6wYorZDuto70AmAxFD-74" edge="1">
          <mxGeometry relative="1" as="geometry" />
        </mxCell>
        <mxCell id="QS6wYorZDuto70AmAxFD-90" value="Информация о принятии денежных средств" style="edgeLabel;html=1;align=center;verticalAlign=middle;resizable=0;points=[];" parent="QS6wYorZDuto70AmAxFD-72" vertex="1" connectable="0">
          <mxGeometry x="0.1583" y="-2" relative="1" as="geometry">
            <mxPoint x="-16" y="-12" as="offset" />
          </mxGeometry>
        </mxCell>
        <mxCell id="QS6wYorZDuto70AmAxFD-73" value="Проведение платежа в контрольно-кассовой машине" style="rounded=1;whiteSpace=wrap;html=1;" parent="1" vertex="1">
          <mxGeometry x="623" y="300" width="120" height="60" as="geometry" />
        </mxCell>
        <mxCell id="QS6wYorZDuto70AmAxFD-74" value="Обработка платежа в 1С" style="rounded=1;whiteSpace=wrap;html=1;" parent="1" vertex="1">
          <mxGeometry x="1241" y="300" width="120" height="60" as="geometry" />
        </mxCell>
        <mxCell id="QS6wYorZDuto70AmAxFD-75" value="Данные о платеже для хранилища" style="edgeStyle=orthogonalEdgeStyle;rounded=0;orthogonalLoop=1;jettySize=auto;html=1;exitX=1;exitY=0.5;exitDx=0;exitDy=0;entryX=0;entryY=0.5;entryDx=0;entryDy=0;entryPerimeter=0;" parent="1" source="QS6wYorZDuto70AmAxFD-74" target="QS6wYorZDuto70AmAxFD-69" edge="1">
          <mxGeometry relative="1" as="geometry" />
        </mxCell>
        <mxCell id="QS6wYorZDuto70AmAxFD-76" value="Обработка анализов" style="edgeLabel;html=1;align=center;verticalAlign=middle;resizable=0;points=[];" parent="1" vertex="1" connectable="0">
          <mxGeometry x="90" y="550" as="geometry">
            <mxPoint x="3" y="-4" as="offset" />
          </mxGeometry>
        </mxCell>
        <mxCell id="QS6wYorZDuto70AmAxFD-78" value="Бухгалтерия" style="rounded=0;whiteSpace=wrap;html=1;" parent="1" vertex="1">
          <mxGeometry x="1940" y="300" width="120" height="60" as="geometry" />
        </mxCell>
        <mxCell id="QS6wYorZDuto70AmAxFD-79" style="edgeStyle=orthogonalEdgeStyle;rounded=0;orthogonalLoop=1;jettySize=auto;html=1;exitX=0;exitY=0.5;exitDx=0;exitDy=0;entryX=1;entryY=0.5;entryDx=0;entryDy=0;entryPerimeter=0;" parent="1" source="QS6wYorZDuto70AmAxFD-78" target="QS6wYorZDuto70AmAxFD-69" edge="1">
          <mxGeometry relative="1" as="geometry">
            <mxPoint x="1270" y="450" as="sourcePoint" />
          </mxGeometry>
        </mxCell>
        <mxCell id="QS6wYorZDuto70AmAxFD-85" value="Процессинг платежей" style="edgeLabel;html=1;align=center;verticalAlign=middle;resizable=0;points=[];" parent="QS6wYorZDuto70AmAxFD-79" vertex="1" connectable="0">
          <mxGeometry x="-0.1597" y="4" relative="1" as="geometry">
            <mxPoint x="1" y="-14" as="offset" />
          </mxGeometry>
        </mxCell>
        <mxCell id="QS6wYorZDuto70AmAxFD-80" value="Учет ТМЦ" style="edgeLabel;html=1;align=center;verticalAlign=middle;resizable=0;points=[];" parent="1" vertex="1" connectable="0">
          <mxGeometry x="70" y="400" as="geometry">
            <mxPoint x="6" as="offset" />
          </mxGeometry>
        </mxCell>
        <mxCell id="QS6wYorZDuto70AmAxFD-86" value="&lt;span style=&quot;font-size: 11px; text-wrap-mode: nowrap; background-color: rgb(255, 255, 255);&quot;&gt;Редактирование информации о ТМЦ&lt;/span&gt;" style="rounded=1;whiteSpace=wrap;html=1;" parent="1" vertex="1">
          <mxGeometry x="330" y="422.5" width="217" height="65" as="geometry" />
        </mxCell>
        <mxCell id="QS6wYorZDuto70AmAxFD-87" style="edgeStyle=orthogonalEdgeStyle;rounded=0;orthogonalLoop=1;jettySize=auto;html=1;exitX=1;exitY=0.5;exitDx=0;exitDy=0;entryX=0;entryY=0.5;entryDx=0;entryDy=0;entryPerimeter=0;" parent="1" source="QS6wYorZDuto70AmAxFD-86" target="QS6wYorZDuto70AmAxFD-24" edge="1">
          <mxGeometry relative="1" as="geometry" />
        </mxCell>
        <mxCell id="QS6wYorZDuto70AmAxFD-88" value="Информация о текущих ТМЦ" style="edgeLabel;html=1;align=center;verticalAlign=middle;resizable=0;points=[];" parent="QS6wYorZDuto70AmAxFD-87" vertex="1" connectable="0">
          <mxGeometry x="0.2784" y="4" relative="1" as="geometry">
            <mxPoint x="-20" y="-11" as="offset" />
          </mxGeometry>
        </mxCell>
        <mxCell id="QS6wYorZDuto70AmAxFD-91" value="Автоматизированная обработка анализов" style="rounded=1;whiteSpace=wrap;html=1;" parent="1" vertex="1">
          <mxGeometry x="900" y="595" width="130" height="60" as="geometry" />
        </mxCell>
        <mxCell id="QS6wYorZDuto70AmAxFD-95" style="edgeStyle=orthogonalEdgeStyle;rounded=0;orthogonalLoop=1;jettySize=auto;html=1;exitX=1;exitY=0.5;exitDx=0;exitDy=0;entryX=0;entryY=0.5;entryDx=0;entryDy=0;entryPerimeter=0;" parent="1" source="QS6wYorZDuto70AmAxFD-91" target="QS6wYorZDuto70AmAxFD-5" edge="1">
          <mxGeometry relative="1" as="geometry" />
        </mxCell>
        <mxCell id="QS6wYorZDuto70AmAxFD-96" value="Excel-таблицы с анализами" style="edgeLabel;html=1;align=center;verticalAlign=middle;resizable=0;points=[];" parent="QS6wYorZDuto70AmAxFD-95" vertex="1" connectable="0">
          <mxGeometry x="-0.0428" y="-4" relative="1" as="geometry">
            <mxPoint x="-1" y="-19" as="offset" />
          </mxGeometry>
        </mxCell>
        <mxCell id="q35OqRyjjlaC8kFbtdeE-3" style="edgeStyle=orthogonalEdgeStyle;rounded=0;orthogonalLoop=1;jettySize=auto;html=1;exitX=1;exitY=0.5;exitDx=0;exitDy=0;entryX=0;entryY=0.5;entryDx=0;entryDy=0;" parent="1" source="1K4KLH_W878eEwViPDDh-26" target="q35OqRyjjlaC8kFbtdeE-2" edge="1">
          <mxGeometry relative="1" as="geometry" />
        </mxCell>
        <mxCell id="1K4KLH_W878eEwViPDDh-29" value="Обезличенные анализы пациента" style="edgeLabel;html=1;align=center;verticalAlign=middle;resizable=0;points=[];" vertex="1" connectable="0" parent="q35OqRyjjlaC8kFbtdeE-3">
          <mxGeometry x="-0.0894" y="-1" relative="1" as="geometry">
            <mxPoint y="-16" as="offset" />
          </mxGeometry>
        </mxCell>
        <mxCell id="q35OqRyjjlaC8kFbtdeE-1" value="Пациент" style="rounded=0;whiteSpace=wrap;html=1;" parent="1" vertex="1">
          <mxGeometry x="20" y="595" width="120" height="60" as="geometry" />
        </mxCell>
        <mxCell id="q35OqRyjjlaC8kFbtdeE-2" value="Обработка анализов в лаборатории" style="rounded=1;whiteSpace=wrap;html=1;" parent="1" vertex="1">
          <mxGeometry x="613.6700000000001" y="595" width="120" height="60" as="geometry" />
        </mxCell>
        <mxCell id="1K4KLH_W878eEwViPDDh-4" style="edgeStyle=orthogonalEdgeStyle;rounded=0;orthogonalLoop=1;jettySize=auto;html=1;exitX=1;exitY=0.5;exitDx=0;exitDy=0;entryX=0;entryY=0.5;entryDx=0;entryDy=0;" edge="1" parent="1" source="1K4KLH_W878eEwViPDDh-1" target="1K4KLH_W878eEwViPDDh-3">
          <mxGeometry relative="1" as="geometry" />
        </mxCell>
        <mxCell id="1K4KLH_W878eEwViPDDh-5" value="Классифицированные данные" style="edgeLabel;html=1;align=center;verticalAlign=middle;resizable=0;points=[];" vertex="1" connectable="0" parent="1K4KLH_W878eEwViPDDh-4">
          <mxGeometry x="0.1496" y="1" relative="1" as="geometry">
            <mxPoint x="-16" y="-19" as="offset" />
          </mxGeometry>
        </mxCell>
        <mxCell id="1K4KLH_W878eEwViPDDh-1" value="Классификация данных" style="rounded=1;whiteSpace=wrap;html=1;" vertex="1" parent="1">
          <mxGeometry x="623" y="160" width="120" height="60" as="geometry" />
        </mxCell>
        <mxCell id="1K4KLH_W878eEwViPDDh-7" style="edgeStyle=orthogonalEdgeStyle;rounded=0;orthogonalLoop=1;jettySize=auto;html=1;exitX=1;exitY=0.5;exitDx=0;exitDy=0;entryX=0;entryY=0.5;entryDx=0;entryDy=0;entryPerimeter=0;" edge="1" parent="1" source="1K4KLH_W878eEwViPDDh-3" target="QS6wYorZDuto70AmAxFD-40">
          <mxGeometry relative="1" as="geometry">
            <mxPoint x="1181" y="190" as="targetPoint" />
          </mxGeometry>
        </mxCell>
        <mxCell id="1K4KLH_W878eEwViPDDh-8" value="Зашифрованные данные" style="edgeLabel;html=1;align=center;verticalAlign=middle;resizable=0;points=[];" vertex="1" connectable="0" parent="1K4KLH_W878eEwViPDDh-7">
          <mxGeometry x="0.4159" y="2" relative="1" as="geometry">
            <mxPoint x="-39" y="-13" as="offset" />
          </mxGeometry>
        </mxCell>
        <mxCell id="1K4KLH_W878eEwViPDDh-3" value="Шифрация данных" style="rounded=1;whiteSpace=wrap;html=1;" vertex="1" parent="1">
          <mxGeometry x="920" y="160" width="120" height="60" as="geometry" />
        </mxCell>
        <mxCell id="1K4KLH_W878eEwViPDDh-10" value="" style="edgeStyle=orthogonalEdgeStyle;rounded=0;orthogonalLoop=1;jettySize=auto;html=1;exitX=0;exitY=0.5;exitDx=0;exitDy=0;entryX=1;entryY=0.5;entryDx=0;entryDy=0;entryPerimeter=0;" edge="1" parent="1" source="QS6wYorZDuto70AmAxFD-55" target="1K4KLH_W878eEwViPDDh-9">
          <mxGeometry relative="1" as="geometry">
            <mxPoint x="1620" y="90" as="sourcePoint" />
            <mxPoint x="1350" y="190" as="targetPoint" />
          </mxGeometry>
        </mxCell>
        <mxCell id="1K4KLH_W878eEwViPDDh-11" value="Запрос к хранилищу + токен доступа" style="edgeLabel;html=1;align=center;verticalAlign=middle;resizable=0;points=[];" vertex="1" connectable="0" parent="1K4KLH_W878eEwViPDDh-10">
          <mxGeometry x="-0.0694" y="1" relative="1" as="geometry">
            <mxPoint x="-56" y="-27" as="offset" />
          </mxGeometry>
        </mxCell>
        <mxCell id="1K4KLH_W878eEwViPDDh-9" value="Проверка токена доступа" style="rounded=1;whiteSpace=wrap;html=1;" vertex="1" parent="1">
          <mxGeometry x="1510" y="110" width="120" height="60" as="geometry" />
        </mxCell>
        <mxCell id="1K4KLH_W878eEwViPDDh-16" style="edgeStyle=orthogonalEdgeStyle;rounded=0;orthogonalLoop=1;jettySize=auto;html=1;exitX=1;exitY=0.5;exitDx=0;exitDy=0;entryX=0;entryY=0.75;entryDx=0;entryDy=0;" edge="1" parent="1" source="1K4KLH_W878eEwViPDDh-12" target="QS6wYorZDuto70AmAxFD-55">
          <mxGeometry relative="1" as="geometry">
            <Array as="points">
              <mxPoint x="1700" y="220" />
              <mxPoint x="1700" y="105" />
            </Array>
          </mxGeometry>
        </mxCell>
        <mxCell id="1K4KLH_W878eEwViPDDh-17" value="Данные пациента" style="edgeLabel;html=1;align=center;verticalAlign=middle;resizable=0;points=[];" vertex="1" connectable="0" parent="1K4KLH_W878eEwViPDDh-16">
          <mxGeometry x="-0.5306" y="1" relative="1" as="geometry">
            <mxPoint as="offset" />
          </mxGeometry>
        </mxCell>
        <mxCell id="1K4KLH_W878eEwViPDDh-12" value="Дешифрация данных" style="rounded=1;whiteSpace=wrap;html=1;" vertex="1" parent="1">
          <mxGeometry x="1490" y="190" width="120" height="60" as="geometry" />
        </mxCell>
        <mxCell id="1K4KLH_W878eEwViPDDh-24" value="" style="edgeStyle=orthogonalEdgeStyle;rounded=0;orthogonalLoop=1;jettySize=auto;html=1;exitX=1;exitY=0.5;exitDx=0;exitDy=0;entryX=0;entryY=0.5;entryDx=0;entryDy=0;" edge="1" parent="1" source="QS6wYorZDuto70AmAxFD-73" target="1K4KLH_W878eEwViPDDh-23">
          <mxGeometry relative="1" as="geometry">
            <mxPoint x="743" y="330" as="sourcePoint" />
            <mxPoint x="1320" y="330" as="targetPoint" />
          </mxGeometry>
        </mxCell>
        <mxCell id="1K4KLH_W878eEwViPDDh-23" value="Токенизация данных платежа" style="rounded=1;whiteSpace=wrap;html=1;" vertex="1" parent="1">
          <mxGeometry x="830" y="300" width="140" height="60" as="geometry" />
        </mxCell>
        <mxCell id="1K4KLH_W878eEwViPDDh-27" value="" style="edgeStyle=orthogonalEdgeStyle;rounded=0;orthogonalLoop=1;jettySize=auto;html=1;exitX=1;exitY=0.5;exitDx=0;exitDy=0;entryX=0;entryY=0.5;entryDx=0;entryDy=0;" edge="1" parent="1" source="q35OqRyjjlaC8kFbtdeE-1" target="1K4KLH_W878eEwViPDDh-26">
          <mxGeometry relative="1" as="geometry">
            <mxPoint x="140" y="625" as="sourcePoint" />
            <mxPoint x="614" y="625" as="targetPoint" />
          </mxGeometry>
        </mxCell>
        <mxCell id="1K4KLH_W878eEwViPDDh-28" value="Анализы пациента" style="edgeLabel;html=1;align=center;verticalAlign=middle;resizable=0;points=[];" vertex="1" connectable="0" parent="1K4KLH_W878eEwViPDDh-27">
          <mxGeometry x="-0.0909" y="2" relative="1" as="geometry">
            <mxPoint x="10" y="-13" as="offset" />
          </mxGeometry>
        </mxCell>
        <mxCell id="1K4KLH_W878eEwViPDDh-26" value="Обезличивание данных" style="rounded=1;whiteSpace=wrap;html=1;" vertex="1" parent="1">
          <mxGeometry x="294.00000000000006" y="595" width="120" height="60" as="geometry" />
        </mxCell>
      </root>
    </mxGraphModel>
  </diagram>
</mxfile>
